<svg xmlns="http://www.w3.org/2000/svg" viewBox="0 0 32 32">
  <path fill="#1c1d20" d="M6.667 0h18.667c3.682 0 6.667 2.985 6.667 6.667v18.667c0 3.682-2.985 6.667-6.667 6.667h-18.667c-3.682 0-6.667-2.985-6.667-6.667v-18.667c0-3.682 2.985-6.667 6.667-6.667z"></path>
  <path fill="#fafafa" d="M12.432 20.797c-0.551 0-1.046-0.098-1.484-0.293-0.438-0.2-0.786-0.49-1.042-0.872s-0.384-0.846-0.384-1.393v-0.189h1.452v0.189c0 0.265 0.061 0.497 0.182 0.697 0.126 0.2 0.297 0.354 0.514 0.462 0.221 0.104 0.475 0.156 0.762 0.156 0.308 0 0.571-0.065 0.788-0.195s0.382-0.321 0.495-0.573c0.113-0.256 0.169-0.569 0.169-0.937v-6.882h1.452v6.882c0 0.621-0.119 1.152-0.358 1.595-0.234 0.438-0.569 0.775-1.003 1.009-0.434 0.23-0.948 0.345-1.543 0.345zM18.533 16.422l0.091-1.999-1.68 1.087-0.521-0.898 1.784-0.911-1.784-0.911 0.521-0.911 1.68 1.087-0.091-1.999h1.029l-0.091 1.999 1.68-1.087 0.521 0.911-1.784 0.911 1.784 0.911-0.521 0.898-1.68-1.087 0.091 1.999h-1.029z"></path>
</svg>
